<?xml version="1.0" encoding="utf-8"?>
<!-- Generator: Adobe Illustrator 27.5.0, SVG Export Plug-In . SVG Version: 6.00 Build 0)  -->
<svg version="1.1" xmlns="http://www.w3.org/2000/svg" xmlns:xlink="http://www.w3.org/1999/xlink" x="0px" y="0px"
	 viewBox="0 0 773 324.8" style="enable-background:new 0 0 773 324.8;" xml:space="preserve">
<style type="text/css">
	.st0{display:none;}
	.st1{display:inline;fill:none;}
	.st2{fill:#FFFFFF;}
</style>
<g id="Area_of_Isolation" class="st0">
	<path class="st1" d="M164.4,0c0,0,0,0.7,0,0.8c9.4,3.7,5.9,12.9,5.9,12.9L153,68.9L129.7,0.2H97.1v1c5.6,1.3,8.3,11,8.3,11
		l21.4,59.6c5.9,16.8,17,20.1,17,20.1l13.7,5.3L190.4,0H164.4z"/>
	<path class="st1" d="M0,125c0,0,0.7,0,0.8,0c3.7-9.4,12.9-5.9,12.9-5.9l55.1,17.2L0.2,159.7v32.6h1c1.3-5.6,11-8.3,11-8.3
		l59.6-21.4c16.8-5.9,20.1-17,20.1-17l5.3-13.7L0,99V125z"/>
	<path class="st1" d="M374.3,227.8c0,0,0,0.7,0,0.8c9.4,3.7,5.9,12.9,5.9,12.9L363,296.6l-23.3-68.7h-32.6v1c5.6,1.3,8.3,11,8.3,11
		l21.4,59.6c5.9,16.8,17,20.1,17,20.1l13.7,5.3l32.9-97.1H374.3z"/>
	<path class="st1" d="M675.9,125.2c0,0,0.7,0,0.8,0c3.7-9.4,12.9-5.9,12.9-5.9l55.1,17.2l-68.7,23.3v32.6h1c1.3-5.6,11-8.3,11-8.3
		l59.6-21.4c16.8-5.9,20.1-17,20.1-17l5.3-13.7l-97.1-32.9V125.2z"/>
</g>
<g id="Word_Mark">
	<g>
		<path class="st2" d="M680,100.7c0,2,1.6,3.6,3.6,3.6c2,0,3.6-1.6,3.6-3.6c0-2-1.6-3.6-3.6-3.6C681.6,97.1,680,98.7,680,100.7z
			 M680.5,100.7c0-1.7,1.4-3.1,3.1-3.1c1.7,0,3.1,1.4,3.1,3.1c0,1.7-1.4,3.1-3.1,3.1C681.9,103.8,680.5,102.4,680.5,100.7z"/>
		<path class="st2" d="M682.8,100.4h1c0.7,0,0.8-0.3,0.8-0.7s-0.1-0.6-0.8-0.7h-1V100.4z M682.8,100.9v1.9h-0.6v-4.2h1.5
			c0.7,0,1.4,0.2,1.4,1.1c0,0.5-0.3,0.9-0.8,1v0c0.5,0.1,0.6,0.4,0.6,0.9c0.1,0.4,0.1,0.9,0.3,1.3h-0.6c-0.1-0.2-0.1-0.5-0.2-0.8
			c0-0.4,0-0.7-0.2-0.9c-0.2-0.2-0.4-0.2-0.6-0.2H682.8z"/>
	</g>
	<path class="st2" d="M297.9,193.4l29.7,0l0-0.8c0,0-6-0.2-5.8-10.9c0,0,0-33.1,0-33.1c0-23-23.3-22.2-23.3-22.2
		c-9.8,0.2-16.4,6.1-18,7.7l0-7.6l-29.9,1.2v0.8c6.2,0.4,5.7,9.8,5.7,10v45c-2,0-5.6,0-5.6-0.1c-10-0.6-10-10.8-10-11.1
		c0,0-0.3-20.7-0.3-20.6c0.1-14.9-8.7-19.6-8.6-19.7c-16.7-10.4-40.7-3.2-40.7-3.2s-5.1,16.2-5.3,16.1c25.5-11.2,29.6-0.1,29.5-0.5
		c0.4,1.1,0.5,2.1,0.3,2.9c-0.8,4.8-9.7,6.1-9.8,6.1c-10.5,1.9-16,3.8-16,3.8c-16.1,5.5-14,19.1-14,19.2c2.7,17.5,26.4,17,26.4,17
		h10.1l5.1-10.5c-10.5,2.1-13.7-3.6-13.7-3.6c-4.4-7.2,2.3-11.5,2.3-11.5c2.6-2,10.9-3.9,10.9-3.9v10.6
		c0.8,19.6,21.7,18.9,22.4,18.8h17.1v0l30,0v-0.8c0,0-5.6-0.2-5.8-9.5l0-30.3l0,0c-0.2-11.2,9-11.4,9-11.4c9-0.1,8.4,7.9,8.4,9.7
		c0,0,0,30.6,0,30.6c0,0,0.1,0,0.2,0l-0.2,0V193.4z"/>
	<path class="st2" d="M164.4,97.1c0,0,0,0.7,0,0.8c9.4,3.7,5.9,12.9,5.9,12.9L153,165.9l-23.3-68.7H97.1v1c5.6,1.3,8.3,11,8.3,11
		l21.4,59.6c5.9,16.8,17,20.1,17,20.1l13.7,5.3l32.9-97.1H164.4z"/>
	<path class="st2" d="M676.1,181.7l0-84.5l-30.3,1.2v0.8c6.2,0.4,5.7,9.8,5.7,10v21.9c-21.2-13.5-36.5,4-36.4,3.7
		c-9.9,9.9-9.5,25.5-9.6,25.4c0,16.5,9.6,24.9,9.6,24.9c12.6,13.6,27.8,8.3,27.8,8.3s6.6-11.7,6.6-11.8
		c-18.7,3.1-18.7-21.2-18.6-21.3c0-20.9,11.1-19.7,11.2-19.8c9.5,0.1,9.5,11.1,9.5,10.7l0,0.9v41.4l0,0v0l30.6,0v-0.8
		C682.1,192.7,676,193.2,676.1,181.7z"/>
	<path class="st2" d="M585.2,135.2v-8.7l-29.9,1.2v0.8c6.2,0.4,5.7,9.8,5.7,10l0,39.6h0l0,5.3c-1.9,0-6,0-6-0.1
		c-10-0.6-10-10.8-10-11.1c0,0-0.3-20.7-0.3-20.6c0.1-14.9-8.7-19.6-8.6-19.7c-16.8-10.4-40.7-3.2-40.7-3.2s-5.1,16.2-5.3,16.1
		c25.5-11.2,29.6-0.1,29.5-0.5c0.4,1.1,0.5,2.1,0.3,2.9c-0.8,4.8-9.7,6.1-9.8,6.1c-10.5,1.9-16,3.8-16,3.8
		c-16.1,5.5-14,19.1-14,19.2c2.8,17.5,26.4,17,26.4,17h10.1l5.1-10.5c-10.5,2.1-13.7-3.6-13.7-3.6c-4.4-7.2,2.3-11.5,2.3-11.5
		c2.6-2,10.9-3.9,10.9-3.9v10.6c0.8,19.6,21.7,18.9,22.4,18.8h17.5v0h30.2v-0.8c-0.3,0-6.1,0.5-6-10.9l0-26.9h0
		c0,0.1-0.8-15.3,19.4-11.9v-16.5C604.6,126.5,591.8,122.6,585.2,135.2z"/>
	<path class="st2" d="M430.6,126.4h-69.4c-8.2,0.4-17.3,2-24.5,9c0,0-12.5,12.2-1.8,27.7c0.1,0,5.1,7.2,13.6,9.9c0,0,0.1,0,0.2,0
		l-0.1,0c0.8,0-6,0.8-8.9,2.5c-1.7,1.1-2.2,2.2-1.7,5.1c0.5,2.9,3,12.2,12.9,12.7c7,0.3,17.1-0.9,22.4,3c0,0,3.8,2.8,3.8,7.5
		c0,3.5-0.4,10.8-15.1,11.5c-0.7,0-12.2-0.1-14.5-8.3c0-0.1-1.2-7,5.5-7.9c0,0-8.8-2.1-16.3,0c-10.1,2.8-13.1,12.2-7.4,18.9
		c-0.1-0.1,8.3,9.8,30.8,9.7c22.7,0.6,45.5-6.2,41.4-29c-0.1,0-2.7-16.3-27.3-16.2H362c0,0-5.2,0.4-6.2-2.1c0,0-2.3-3.7,4.9-3.9l0,0
		l1.3-0.1c0,0,21.2-2.6,27.8-11.9c0.1-0.1,10-11.1-0.2-24.3c0,0-0.9-1.2-1.6-1.8h18.2c0,8.3-0.1,32.7,0,32.9
		c0,23,23.7,22.2,23.7,22.2c10.2-0.2,16.9-6.6,18.2-7.9l0,7.8l30.2,0v-0.8c-6.5-0.3-5.9-10.7-5.9-10.9l0-35.5l0,0l0-19.8l-29.9,1.2
		v0.8c6.2,0.4,5.7,9.8,5.7,10v20.8l0,7.8c0,0,0,0,0,0c-0.3,12.8-9.3,11.3-9.2,11.4c-8.4,0.1-8.2-9.2-8.2-9.2V126.4z M362.2,162.9
		c-0.6,0.2-9.4-0.6-8.4-12.8c0.1,0.1-0.2-10.9,8.4-10.9c0,0,7.9-0.3,8.1,10.7C370.3,150,371.4,162.9,362.2,162.9z"/>
</g>
</svg>
